<svg width="24" height="28" viewBox="0 0 24 28" fill="none" xmlns="http://www.w3.org/2000/svg">
<path d="M12.616 6.366L4.408 25.67C4.23067 26.1513 3.952 26.5313 3.572 26.81C3.21733 27.0633 2.82467 27.19 2.394 27.19C1.71 27.19 1.20333 27 0.874 26.62C0.544667 26.24 0.38 25.7713 0.38 25.214C0.38 24.986 0.418 24.7453 0.494 24.492L9.956 1.768C10.1587 1.26133 10.4627 0.868666 10.868 0.589998C11.2987 0.311332 11.7547 0.197332 12.236 0.247998C12.692 0.247998 13.11 0.387332 13.49 0.665999C13.8953 0.919332 14.1867 1.28667 14.364 1.768L23.712 24.036C23.8387 24.3653 23.902 24.6693 23.902 24.948C23.902 25.632 23.674 26.1767 23.218 26.582C22.7873 26.9873 22.306 27.19 21.774 27.19C21.318 27.19 20.9 27.0507 20.52 26.772C20.1653 26.4933 19.8867 26.1133 19.684 25.632L11.514 6.594L12.616 6.366ZM5.586 21.034L7.676 16.664H17.936L18.658 21.034H5.586Z" fill="white"/>
</svg>
